<svg width="9" height="11" fill="none" xmlns="http://www.w3.org/2000/svg"><path d="M8.8857 4.1249c0 .0745-.0292.1404-.0878.1977L4.702 8.3272c-.0585.0573-.126.086-.2021.086-.0762 0-.1436-.0287-.2021-.086L.202 4.3226c-.0585-.0573-.0878-.1232-.0878-.1977 0-.0745.0293-.1404.0878-.1977l.4395-.4296c.0586-.0573.126-.086.2022-.086.0761 0 .1435.0287.2021.086L4.5 6.8749l3.4541-3.3773c.0586-.0573.126-.086.2021-.086.0762 0 .1436.0287.2022.086l.4395.4297c.0586.0572.0878.1231.0878.1976z" fill="#7E8183"/></svg>