<svg width="141" height="19" fill="none" xmlns="http://www.w3.org/2000/svg"><path d="M1.0156 15V3.625h3.5c1 0 1.8933.2266 2.6797.6797.7917.4479 1.4089 1.0885 1.8516 1.9219.4427.828.664 1.7708.664 2.828v.5235c0 1.0573-.2187 1.9974-.6562 2.8203-.4323.823-1.0443 1.461-1.836 1.9141-.7916.4531-1.6848.6823-2.6796.6875H1.0156zm2.3438-9.4766v7.5938h1.1328c.9166 0 1.6172-.2995 2.1015-.8984.4844-.599.7318-1.4558.7422-2.5704V9.047c0-1.1563-.2395-2.0313-.7187-2.625-.4792-.599-1.1797-.8985-2.1016-.8985H3.3594zm11.125-1.8984l2.9218 8.25 2.9063-8.25h3.0781V15h-2.3515v-3.1094l.2343-5.3672L18.2031 15h-1.6093l-3.0626-8.4688.2344 5.3594V15h-2.3437V3.625h3.0625zm19.8828 7.5859c-.0886 1.224-.5417 2.1875-1.3594 2.8907-.8125.7031-1.8854 1.0546-3.2187 1.0546-1.4584 0-2.6068-.4895-3.4453-1.4687-.8334-.9844-1.25-2.3333-1.25-4.0469v-.6953c0-1.0937.1927-2.0573.5781-2.8906.3854-.8334.9349-1.4714 1.6484-1.914.7188-.448 1.5521-.672 2.5-.672 1.3125 0 2.3698.3516 3.1719 1.0547.8021.7032 1.2656 1.6901 1.3906 2.961h-2.3437c-.0573-.7344-.2631-1.2656-.6172-1.5938-.349-.3333-.8828-.5-1.6016-.5-.7812 0-1.3672.2813-1.7578.8438-.3854.5573-.5833 1.4245-.5937 2.6015v.8594c0 1.2292.1848 2.1276.5546 2.6953.375.5677.9636.8516 1.7657.8516.7239 0 1.263-.1641 1.6171-.4922.3594-.3333.5652-.8464.6172-1.5391h2.3438zm7.9609 1.4453h-4.1093L37.4375 15h-2.4922l4.2344-11.375h2.1719L45.6094 15h-2.4922l-.7891-2.3438zm-3.4765-1.8984h2.8437L40.2656 6.5l-1.414 4.2578z" fill="#7E8183"/><path fill-rule="evenodd" clip-rule="evenodd" d="M51 0c-.5523 0-1 .4477-1 1v16c0 .5523.4477 1 1 1h89c.552 0 1-.4477 1-1V1c0-.5523-.448-1-1-1H51zm30.3125 12.5156c.3958-.8437.5937-1.8255.5937-2.9453v-.5078c0-1.1146-.2031-2.0964-.6093-2.9453-.4011-.8542-.9714-1.5078-1.711-1.961-.7343-.4583-1.5755-.6875-2.5234-.6875-.9479 0-1.7917.2292-2.5313.6875-.7343.4532-1.3046 1.1068-1.7109 1.961-.401.849-.6015 1.8333-.6015 2.9531v.5625c.0052 1.0938.2109 2.0625.6171 2.9063.4063.8385.9792 1.4843 1.7188 1.9375.7396.4531 1.5807.6796 2.5234.6796.9531 0 1.7969-.2291 2.5313-.6874.7396-.4584 1.3073-1.1094 1.7031-1.9532zm-2.4219-6.1797c.4271.6198.6406 1.526.6406 2.7188v.5547c-.0052 1.1823-.2187 2.0833-.6406 2.7031-.4218.6146-1.026.9219-1.8125.9219-.8021 0-1.4166-.3203-1.8437-.961-.4271-.6406-.6406-1.5416-.6406-2.703v-.5548c.0052-1.1823.2213-2.0781.6484-2.6875.4271-.6146 1.0338-.9219 1.8203-.9219.7917 0 1.401.31 1.8281.9297zm-24.5312 4.6563V15h-2.3438V3.625h4.4375c.8542 0 1.6042.1563 2.25.4688.6511.3125 1.1511.7578 1.5 1.3359.349.5729.5235 1.2265.5235 1.961 0 1.1145-.3828 1.9947-1.1485 2.6405-.7604.6407-1.8151.961-3.164.961h-2.0547zm0-1.8985h2.0937c.6198 0 1.0912-.1458 1.4141-.4375.3281-.2916.4922-.7083.4922-1.25 0-.5572-.1641-1.0078-.4922-1.3515-.3281-.3438-.7813-.5209-1.3594-.5313h-2.1484v3.5704zm12.1953 1.7422h-1.8672V15h-2.3437V3.625h4.2265c1.3438 0 2.3802.2995 3.1094.8984.7292.599 1.0937 1.4454 1.0937 2.5391 0 .776-.1692 1.4245-.5078 1.9453-.3333.5156-.8411.9271-1.5234 1.2344l2.4609 4.6484V15h-2.5156l-2.1328-4.1641zm-1.8672-1.8984h1.8906c.5886 0 1.0443-.1484 1.3672-.4453.3229-.3021.4844-.7162.4844-1.2422 0-.5365-.1537-.9583-.4609-1.2656-.3021-.3073-.7683-.461-1.3985-.461h-1.8828v3.4141zM91.5 5.5235h-3.4844V15h-2.3437V5.5234h-3.4375V3.625H91.5v1.8984zm3.6875 4.5468h4.5v-1.836h-4.5V5.5235h5.2655V3.625h-7.6092V15h7.6252v-1.8828h-5.2815v-3.0469zm15.5855 1.1406c-.088 1.224-.541 2.1875-1.359 2.8907-.812.7031-1.885 1.0546-3.219 1.0546-1.458 0-2.606-.4895-3.445-1.4687-.833-.9844-1.25-2.3333-1.25-4.0469v-.6953c0-1.0937.193-2.0573.578-2.8906.386-.8334.935-1.4714 1.649-1.914.718-.448 1.552-.672 2.5-.672 1.312 0 2.369.3516 3.171 1.0547.803.7032 1.266 1.6901 1.391 2.961h-2.344c-.057-.7344-.263-1.2656-.617-1.5938-.349-.3333-.883-.5-1.601-.5-.782 0-1.368.2813-1.758.8438-.386.5573-.584 1.4245-.594 2.6015v.8594c0 1.2292.185 2.1276.555 2.6953.375.5677.963.8516 1.765.8516.724 0 1.263-.1641 1.617-.4922.36-.3333.566-.8464.618-1.5391h2.343zm6.383-5.6875h3.485V3.625h-9.266v1.8984h3.437V15h2.344V5.5234zm11.672 4.5469h-4.5v3.0469h5.281V15h-7.625V3.625h7.61v1.8984h-5.266v2.711h4.5v1.8359zm2.156-6.4453V15h3.524c.995-.0052 1.888-.2344 2.68-.6875.791-.4531 1.403-1.0911 1.835-1.9141.438-.8229.657-1.763.657-2.8203v-.5234c0-1.0573-.222-2-.664-2.8281-.443-.8334-1.06-1.474-1.852-1.922-.786-.453-1.68-.6796-2.68-.6796h-3.5zm2.344 9.4922V5.5234h1.156c.922 0 1.623.2995 2.102.8985.479.5937.719 1.4687.719 2.625v.6015c-.011 1.1146-.258 1.9714-.743 2.5704-.484.5989-1.184.8984-2.101.8984h-1.133z" fill="#7E8183"/></svg>