<svg width="456" height="250" fill="none" xmlns="http://www.w3.org/2000/svg"><g opacity=".5" fill="#BAD9E7"><path d="M3.5176 8.6207c2.3759 0 4.3019-1.9298 4.3019-4.3104C7.8195 1.9298 5.8935 0 3.5175 0 1.1418 0-.7842 1.9298-.7842 4.3103c0 2.3806 1.926 4.3104 4.3019 4.3104zM37.9327 8.6207c2.3759 0 4.3019-1.9298 4.3019-4.3104C42.2346 1.9298 40.3086 0 37.9327 0c-2.3759 0-4.3019 1.9298-4.3019 4.3103 0 2.3806 1.926 4.3104 4.3019 4.3104zM76.6497 4.3103c0 2.3806-1.926 4.3104-4.3019 4.3104-2.3759 0-4.3019-1.9298-4.3019-4.3104C68.0459 1.9298 69.9719 0 72.3478 0c2.3759 0 4.3019 1.9298 4.3019 4.3103zM106.763 8.6207c2.376 0 4.302-1.9298 4.302-4.3104 0-2.3805-1.926-4.3103-4.302-4.3103-2.376 0-4.302 1.9298-4.302 4.3103 0 2.3806 1.926 4.3104 4.302 4.3104zM145.48 4.3103c0 2.3806-1.926 4.3104-4.302 4.3104-2.376 0-4.302-1.9298-4.302-4.3104 0-2.3805 1.926-4.3103 4.302-4.3103 2.376 0 4.302 1.9298 4.302 4.3103zM175.593 8.6207c2.376 0 4.302-1.9298 4.302-4.3104 0-2.3805-1.926-4.3103-4.302-4.3103-2.376 0-4.302 1.9298-4.302 4.3103 0 2.3806 1.926 4.3104 4.302 4.3104zM214.31 4.3103c0 2.3806-1.926 4.3104-4.302 4.3104-2.376 0-4.302-1.9298-4.302-4.3104 0-2.3805 1.926-4.3103 4.302-4.3103 2.376 0 4.302 1.9298 4.302 4.3103zM244.423 8.6207c2.376 0 4.302-1.9298 4.302-4.3104 0-2.3805-1.926-4.3103-4.302-4.3103-2.376 0-4.302 1.9298-4.302 4.3103 0 2.3806 1.926 4.3104 4.302 4.3104zM283.14 4.3103c0 2.3806-1.926 4.3104-4.302 4.3104-2.376 0-4.302-1.9298-4.302-4.3104 0-2.3805 1.926-4.3103 4.302-4.3103 2.376 0 4.302 1.9298 4.302 4.3103zM313.253 8.6207c2.376 0 4.302-1.9298 4.302-4.3104 0-2.3805-1.926-4.3103-4.302-4.3103-2.375 0-4.301 1.9298-4.301 4.3103 0 2.3806 1.926 4.3104 4.301 4.3104zM351.97 4.3103c0 2.3806-1.926 4.3104-4.301 4.3104-2.376 0-4.302-1.9298-4.302-4.3104 0-2.3805 1.926-4.3103 4.302-4.3103 2.375 0 4.301 1.9298 4.301 4.3103zM382.084 8.6207c2.376 0 4.302-1.9298 4.302-4.3104C386.386 1.9298 384.46 0 382.084 0c-2.376 0-4.302 1.9298-4.302 4.3103 0 2.3806 1.926 4.3104 4.302 4.3104zM420.801 4.3103c0 2.3806-1.926 4.3104-4.302 4.3104-2.376 0-4.302-1.9298-4.302-4.3104 0-2.3805 1.926-4.3103 4.302-4.3103 2.376 0 4.302 1.9298 4.302 4.3103zM450.914 8.6207c2.376 0 4.302-1.9298 4.302-4.3104C455.216 1.9298 453.29 0 450.914 0c-2.376 0-4.302 1.9298-4.302 4.3103 0 2.3806 1.926 4.3104 4.302 4.3104zM7.8195 38.7931c0 2.3805-1.926 4.3103-4.302 4.3103-2.3758 0-4.3018-1.9298-4.3018-4.3103 0-2.3805 1.926-4.3103 4.3019-4.3103 2.3759 0 4.3019 1.9298 4.3019 4.3103zM37.9327 43.1034c2.3759 0 4.3019-1.9298 4.3019-4.3103 0-2.3805-1.926-4.3103-4.3019-4.3103-2.3759 0-4.3019 1.9298-4.3019 4.3103 0 2.3805 1.926 4.3103 4.3019 4.3103zM76.6497 38.7931c0 2.3805-1.926 4.3103-4.3019 4.3103-2.3759 0-4.3019-1.9298-4.3019-4.3103 0-2.3805 1.926-4.3103 4.3019-4.3103 2.3759 0 4.3019 1.9298 4.3019 4.3103zM106.763 43.1034c2.376 0 4.302-1.9298 4.302-4.3103 0-2.3805-1.926-4.3103-4.302-4.3103-2.376 0-4.302 1.9298-4.302 4.3103 0 2.3805 1.926 4.3103 4.302 4.3103zM145.48 38.7931c0 2.3805-1.926 4.3103-4.302 4.3103-2.376 0-4.302-1.9298-4.302-4.3103 0-2.3805 1.926-4.3103 4.302-4.3103 2.376 0 4.302 1.9298 4.302 4.3103zM175.593 43.1034c2.376 0 4.302-1.9298 4.302-4.3103 0-2.3805-1.926-4.3103-4.302-4.3103-2.376 0-4.302 1.9298-4.302 4.3103 0 2.3805 1.926 4.3103 4.302 4.3103zM214.31 38.7931c0 2.3805-1.926 4.3103-4.302 4.3103-2.376 0-4.302-1.9298-4.302-4.3103 0-2.3805 1.926-4.3103 4.302-4.3103 2.376 0 4.302 1.9298 4.302 4.3103zM244.423 43.1034c2.376 0 4.302-1.9298 4.302-4.3103 0-2.3805-1.926-4.3103-4.302-4.3103-2.376 0-4.302 1.9298-4.302 4.3103 0 2.3805 1.926 4.3103 4.302 4.3103zM283.14 38.7931c0 2.3805-1.926 4.3103-4.302 4.3103-2.376 0-4.302-1.9298-4.302-4.3103 0-2.3805 1.926-4.3103 4.302-4.3103 2.376 0 4.302 1.9298 4.302 4.3103zM313.253 43.1034c2.376 0 4.302-1.9298 4.302-4.3103 0-2.3805-1.926-4.3103-4.302-4.3103-2.375 0-4.301 1.9298-4.301 4.3103 0 2.3805 1.926 4.3103 4.301 4.3103zM351.97 38.7931c0 2.3805-1.926 4.3103-4.301 4.3103-2.376 0-4.302-1.9298-4.302-4.3103 0-2.3805 1.926-4.3103 4.302-4.3103 2.375 0 4.301 1.9298 4.301 4.3103zM382.084 43.1034c2.376 0 4.302-1.9298 4.302-4.3103 0-2.3805-1.926-4.3103-4.302-4.3103-2.376 0-4.302 1.9298-4.302 4.3103 0 2.3805 1.926 4.3103 4.302 4.3103zM420.801 38.7931c0 2.3805-1.926 4.3103-4.302 4.3103-2.376 0-4.302-1.9298-4.302-4.3103 0-2.3805 1.926-4.3103 4.302-4.3103 2.376 0 4.302 1.9298 4.302 4.3103zM450.914 43.1034c2.376 0 4.302-1.9298 4.302-4.3103 0-2.3805-1.926-4.3103-4.302-4.3103-2.376 0-4.302 1.9298-4.302 4.3103 0 2.3805 1.926 4.3103 4.302 4.3103zM7.8195 73.2759c0 2.3805-1.926 4.3103-4.302 4.3103-2.3758 0-4.3018-1.9298-4.3018-4.3103 0-2.3806 1.926-4.3104 4.3019-4.3104 2.3759 0 4.3019 1.9298 4.3019 4.3104zM37.9327 77.5862c2.3759 0 4.3019-1.9298 4.3019-4.3103 0-2.3806-1.926-4.3104-4.3019-4.3104-2.3759 0-4.3019 1.9298-4.3019 4.3104 0 2.3805 1.926 4.3103 4.3019 4.3103zM76.6497 73.2759c0 2.3805-1.926 4.3103-4.3019 4.3103-2.3759 0-4.3019-1.9298-4.3019-4.3103 0-2.3806 1.926-4.3104 4.3019-4.3104 2.3759 0 4.3019 1.9298 4.3019 4.3104zM106.763 77.5862c2.376 0 4.302-1.9298 4.302-4.3103 0-2.3806-1.926-4.3104-4.302-4.3104-2.376 0-4.302 1.9298-4.302 4.3104 0 2.3805 1.926 4.3103 4.302 4.3103zM145.48 73.2759c0 2.3805-1.926 4.3103-4.302 4.3103-2.376 0-4.302-1.9298-4.302-4.3103 0-2.3806 1.926-4.3104 4.302-4.3104 2.376 0 4.302 1.9298 4.302 4.3104zM175.593 77.5862c2.376 0 4.302-1.9298 4.302-4.3103 0-2.3806-1.926-4.3104-4.302-4.3104-2.376 0-4.302 1.9298-4.302 4.3104 0 2.3805 1.926 4.3103 4.302 4.3103zM214.31 73.2759c0 2.3805-1.926 4.3103-4.302 4.3103-2.376 0-4.302-1.9298-4.302-4.3103 0-2.3806 1.926-4.3104 4.302-4.3104 2.376 0 4.302 1.9298 4.302 4.3104zM244.423 77.5862c2.376 0 4.302-1.9298 4.302-4.3103 0-2.3806-1.926-4.3104-4.302-4.3104-2.376 0-4.302 1.9298-4.302 4.3104 0 2.3805 1.926 4.3103 4.302 4.3103zM283.14 73.2759c0 2.3805-1.926 4.3103-4.302 4.3103-2.376 0-4.302-1.9298-4.302-4.3103 0-2.3806 1.926-4.3104 4.302-4.3104 2.376 0 4.302 1.9298 4.302 4.3104zM313.253 77.5862c2.376 0 4.302-1.9298 4.302-4.3103 0-2.3806-1.926-4.3104-4.302-4.3104-2.375 0-4.301 1.9298-4.301 4.3104 0 2.3805 1.926 4.3103 4.301 4.3103zM351.97 73.2759c0 2.3805-1.926 4.3103-4.301 4.3103-2.376 0-4.302-1.9298-4.302-4.3103 0-2.3806 1.926-4.3104 4.302-4.3104 2.375 0 4.301 1.9298 4.301 4.3104zM382.084 77.5862c2.376 0 4.302-1.9298 4.302-4.3103 0-2.3806-1.926-4.3104-4.302-4.3104-2.376 0-4.302 1.9298-4.302 4.3104 0 2.3805 1.926 4.3103 4.302 4.3103zM420.801 73.2759c0 2.3805-1.926 4.3103-4.302 4.3103-2.376 0-4.302-1.9298-4.302-4.3103 0-2.3806 1.926-4.3104 4.302-4.3104 2.376 0 4.302 1.9298 4.302 4.3104zM450.914 77.5862c2.376 0 4.302-1.9298 4.302-4.3103 0-2.3806-1.926-4.3104-4.302-4.3104-2.376 0-4.302 1.9298-4.302 4.3104 0 2.3805 1.926 4.3103 4.302 4.3103zM7.8195 107.759c0 2.38-1.926 4.31-4.302 4.31-2.3758 0-4.3018-1.93-4.3018-4.31 0-2.381 1.926-4.311 4.3019-4.311 2.3759 0 4.3019 1.93 4.3019 4.311zM37.9327 112.069c2.3759 0 4.3019-1.93 4.3019-4.31 0-2.381-1.926-4.311-4.3019-4.311-2.3759 0-4.3019 1.93-4.3019 4.311 0 2.38 1.926 4.31 4.3019 4.31zM76.6497 107.759c0 2.38-1.926 4.31-4.3019 4.31-2.3759 0-4.3019-1.93-4.3019-4.31 0-2.381 1.926-4.311 4.3019-4.311 2.3759 0 4.3019 1.93 4.3019 4.311zM106.763 112.069c2.376 0 4.302-1.93 4.302-4.31 0-2.381-1.926-4.311-4.302-4.311-2.376 0-4.302 1.93-4.302 4.311 0 2.38 1.926 4.31 4.302 4.31zM145.48 107.759c0 2.38-1.926 4.31-4.302 4.31-2.376 0-4.302-1.93-4.302-4.31 0-2.381 1.926-4.311 4.302-4.311 2.376 0 4.302 1.93 4.302 4.311zM175.593 112.069c2.376 0 4.302-1.93 4.302-4.31 0-2.381-1.926-4.311-4.302-4.311-2.376 0-4.302 1.93-4.302 4.311 0 2.38 1.926 4.31 4.302 4.31zM214.31 107.759c0 2.38-1.926 4.31-4.302 4.31-2.376 0-4.302-1.93-4.302-4.31 0-2.381 1.926-4.311 4.302-4.311 2.376 0 4.302 1.93 4.302 4.311zM244.423 112.069c2.376 0 4.302-1.93 4.302-4.31 0-2.381-1.926-4.311-4.302-4.311-2.376 0-4.302 1.93-4.302 4.311 0 2.38 1.926 4.31 4.302 4.31zM283.14 107.759c0 2.38-1.926 4.31-4.302 4.31-2.376 0-4.302-1.93-4.302-4.31 0-2.381 1.926-4.311 4.302-4.311 2.376 0 4.302 1.93 4.302 4.311zM313.253 112.069c2.376 0 4.302-1.93 4.302-4.31 0-2.381-1.926-4.311-4.302-4.311-2.375 0-4.301 1.93-4.301 4.311 0 2.38 1.926 4.31 4.301 4.31zM351.97 107.759c0 2.38-1.926 4.31-4.301 4.31-2.376 0-4.302-1.93-4.302-4.31 0-2.381 1.926-4.311 4.302-4.311 2.375 0 4.301 1.93 4.301 4.311zM382.084 112.069c2.376 0 4.302-1.93 4.302-4.31 0-2.381-1.926-4.311-4.302-4.311-2.376 0-4.302 1.93-4.302 4.311 0 2.38 1.926 4.31 4.302 4.31zM420.801 107.759c0 2.38-1.926 4.31-4.302 4.31-2.376 0-4.302-1.93-4.302-4.31 0-2.381 1.926-4.311 4.302-4.311 2.376 0 4.302 1.93 4.302 4.311zM450.914 112.069c2.376 0 4.302-1.93 4.302-4.31 0-2.381-1.926-4.311-4.302-4.311-2.376 0-4.302 1.93-4.302 4.311 0 2.38 1.926 4.31 4.302 4.31zM7.8195 142.241c0 2.381-1.926 4.311-4.302 4.311-2.3758 0-4.3018-1.93-4.3018-4.311 0-2.38 1.926-4.31 4.3019-4.31 2.3759 0 4.3019 1.93 4.3019 4.31zM37.9327 146.552c2.3759 0 4.3019-1.93 4.3019-4.311 0-2.38-1.926-4.31-4.3019-4.31-2.3759 0-4.3019 1.93-4.3019 4.31 0 2.381 1.926 4.311 4.3019 4.311zM76.6497 142.241c0 2.381-1.926 4.311-4.3019 4.311-2.3759 0-4.3019-1.93-4.3019-4.311 0-2.38 1.926-4.31 4.3019-4.31 2.3759 0 4.3019 1.93 4.3019 4.31zM106.763 146.552c2.376 0 4.302-1.93 4.302-4.311 0-2.38-1.926-4.31-4.302-4.31-2.376 0-4.302 1.93-4.302 4.31 0 2.381 1.926 4.311 4.302 4.311zM145.48 142.241c0 2.381-1.926 4.311-4.302 4.311-2.376 0-4.302-1.93-4.302-4.311 0-2.38 1.926-4.31 4.302-4.31 2.376 0 4.302 1.93 4.302 4.31zM175.593 146.552c2.376 0 4.302-1.93 4.302-4.311 0-2.38-1.926-4.31-4.302-4.31-2.376 0-4.302 1.93-4.302 4.31 0 2.381 1.926 4.311 4.302 4.311zM214.31 142.241c0 2.381-1.926 4.311-4.302 4.311-2.376 0-4.302-1.93-4.302-4.311 0-2.38 1.926-4.31 4.302-4.31 2.376 0 4.302 1.93 4.302 4.31zM244.423 146.552c2.376 0 4.302-1.93 4.302-4.311 0-2.38-1.926-4.31-4.302-4.31-2.376 0-4.302 1.93-4.302 4.31 0 2.381 1.926 4.311 4.302 4.311zM283.14 142.241c0 2.381-1.926 4.311-4.302 4.311-2.376 0-4.302-1.93-4.302-4.311 0-2.38 1.926-4.31 4.302-4.31 2.376 0 4.302 1.93 4.302 4.31zM313.253 146.552c2.376 0 4.302-1.93 4.302-4.311 0-2.38-1.926-4.31-4.302-4.31-2.375 0-4.301 1.93-4.301 4.31 0 2.381 1.926 4.311 4.301 4.311zM351.97 142.241c0 2.381-1.926 4.311-4.301 4.311-2.376 0-4.302-1.93-4.302-4.311 0-2.38 1.926-4.31 4.302-4.31 2.375 0 4.301 1.93 4.301 4.31zM382.084 146.552c2.376 0 4.302-1.93 4.302-4.311 0-2.38-1.926-4.31-4.302-4.31-2.376 0-4.302 1.93-4.302 4.31 0 2.381 1.926 4.311 4.302 4.311zM420.801 142.241c0 2.381-1.926 4.311-4.302 4.311-2.376 0-4.302-1.93-4.302-4.311 0-2.38 1.926-4.31 4.302-4.31 2.376 0 4.302 1.93 4.302 4.31zM450.914 146.552c2.376 0 4.302-1.93 4.302-4.311 0-2.38-1.926-4.31-4.302-4.31-2.376 0-4.302 1.93-4.302 4.31 0 2.381 1.926 4.311 4.302 4.311zM7.8195 176.724c0 2.381-1.926 4.31-4.302 4.31-2.3758 0-4.3018-1.929-4.3018-4.31 0-2.38 1.926-4.31 4.3019-4.31 2.3759 0 4.3019 1.93 4.3019 4.31zM37.9327 181.034c2.3759 0 4.3019-1.929 4.3019-4.31 0-2.38-1.926-4.31-4.3019-4.31-2.3759 0-4.3019 1.93-4.3019 4.31 0 2.381 1.926 4.31 4.3019 4.31zM76.6497 176.724c0 2.381-1.926 4.31-4.3019 4.31-2.3759 0-4.3019-1.929-4.3019-4.31 0-2.38 1.926-4.31 4.3019-4.31 2.3759 0 4.3019 1.93 4.3019 4.31zM106.763 181.034c2.376 0 4.302-1.929 4.302-4.31 0-2.38-1.926-4.31-4.302-4.31-2.376 0-4.302 1.93-4.302 4.31 0 2.381 1.926 4.31 4.302 4.31zM145.48 176.724c0 2.381-1.926 4.31-4.302 4.31-2.376 0-4.302-1.929-4.302-4.31 0-2.38 1.926-4.31 4.302-4.31 2.376 0 4.302 1.93 4.302 4.31zM175.593 181.034c2.376 0 4.302-1.929 4.302-4.31 0-2.38-1.926-4.31-4.302-4.31-2.376 0-4.302 1.93-4.302 4.31 0 2.381 1.926 4.31 4.302 4.31zM214.31 176.724c0 2.381-1.926 4.31-4.302 4.31-2.376 0-4.302-1.929-4.302-4.31 0-2.38 1.926-4.31 4.302-4.31 2.376 0 4.302 1.93 4.302 4.31zM244.423 181.034c2.376 0 4.302-1.929 4.302-4.31 0-2.38-1.926-4.31-4.302-4.31-2.376 0-4.302 1.93-4.302 4.31 0 2.381 1.926 4.31 4.302 4.31zM283.14 176.724c0 2.381-1.926 4.31-4.302 4.31-2.376 0-4.302-1.929-4.302-4.31 0-2.38 1.926-4.31 4.302-4.31 2.376 0 4.302 1.93 4.302 4.31zM313.253 181.034c2.376 0 4.302-1.929 4.302-4.31 0-2.38-1.926-4.31-4.302-4.31-2.375 0-4.301 1.93-4.301 4.31 0 2.381 1.926 4.31 4.301 4.31zM351.97 176.724c0 2.381-1.926 4.31-4.301 4.31-2.376 0-4.302-1.929-4.302-4.31 0-2.38 1.926-4.31 4.302-4.31 2.375 0 4.301 1.93 4.301 4.31zM382.084 181.034c2.376 0 4.302-1.929 4.302-4.31 0-2.38-1.926-4.31-4.302-4.31-2.376 0-4.302 1.93-4.302 4.31 0 2.381 1.926 4.31 4.302 4.31zM420.801 176.724c0 2.381-1.926 4.31-4.302 4.31-2.376 0-4.302-1.929-4.302-4.31 0-2.38 1.926-4.31 4.302-4.31 2.376 0 4.302 1.93 4.302 4.31zM450.914 181.034c2.376 0 4.302-1.929 4.302-4.31 0-2.38-1.926-4.31-4.302-4.31-2.376 0-4.302 1.93-4.302 4.31 0 2.381 1.926 4.31 4.302 4.31zM7.8195 211.207c0 2.38-1.926 4.31-4.302 4.31-2.3758 0-4.3018-1.93-4.3018-4.31 0-2.381 1.926-4.31 4.3019-4.31 2.3759 0 4.3019 1.929 4.3019 4.31zM37.9327 215.517c2.3759 0 4.3019-1.93 4.3019-4.31 0-2.381-1.926-4.31-4.3019-4.31-2.3759 0-4.3019 1.929-4.3019 4.31 0 2.38 1.926 4.31 4.3019 4.31zM76.6497 211.207c0 2.38-1.926 4.31-4.3019 4.31-2.3759 0-4.3019-1.93-4.3019-4.31 0-2.381 1.926-4.31 4.3019-4.31 2.3759 0 4.3019 1.929 4.3019 4.31zM106.763 215.517c2.376 0 4.302-1.93 4.302-4.31 0-2.381-1.926-4.31-4.302-4.31-2.376 0-4.302 1.929-4.302 4.31 0 2.38 1.926 4.31 4.302 4.31zM145.48 211.207c0 2.38-1.926 4.31-4.302 4.31-2.376 0-4.302-1.93-4.302-4.31 0-2.381 1.926-4.31 4.302-4.31 2.376 0 4.302 1.929 4.302 4.31zM175.593 215.517c2.376 0 4.302-1.93 4.302-4.31 0-2.381-1.926-4.31-4.302-4.31-2.376 0-4.302 1.929-4.302 4.31 0 2.38 1.926 4.31 4.302 4.31zM214.31 211.207c0 2.38-1.926 4.31-4.302 4.31-2.376 0-4.302-1.93-4.302-4.31 0-2.381 1.926-4.31 4.302-4.31 2.376 0 4.302 1.929 4.302 4.31zM244.423 215.517c2.376 0 4.302-1.93 4.302-4.31 0-2.381-1.926-4.31-4.302-4.31-2.376 0-4.302 1.929-4.302 4.31 0 2.38 1.926 4.31 4.302 4.31zM283.14 211.207c0 2.38-1.926 4.31-4.302 4.31-2.376 0-4.302-1.93-4.302-4.31 0-2.381 1.926-4.31 4.302-4.31 2.376 0 4.302 1.929 4.302 4.31zM313.253 215.517c2.376 0 4.302-1.93 4.302-4.31 0-2.381-1.926-4.31-4.302-4.31-2.375 0-4.301 1.929-4.301 4.31 0 2.38 1.926 4.31 4.301 4.31zM351.97 211.207c0 2.38-1.926 4.31-4.301 4.31-2.376 0-4.302-1.93-4.302-4.31 0-2.381 1.926-4.31 4.302-4.31 2.375 0 4.301 1.929 4.301 4.31zM382.084 215.517c2.376 0 4.302-1.93 4.302-4.31 0-2.381-1.926-4.31-4.302-4.31-2.376 0-4.302 1.929-4.302 4.31 0 2.38 1.926 4.31 4.302 4.31zM420.801 211.207c0 2.38-1.926 4.31-4.302 4.31-2.376 0-4.302-1.93-4.302-4.31 0-2.381 1.926-4.31 4.302-4.31 2.376 0 4.302 1.929 4.302 4.31zM450.914 215.517c2.376 0 4.302-1.93 4.302-4.31 0-2.381-1.926-4.31-4.302-4.31-2.376 0-4.302 1.929-4.302 4.31 0 2.38 1.926 4.31 4.302 4.31zM7.8195 245.69c0 2.38-1.926 4.31-4.302 4.31-2.3758 0-4.3018-1.93-4.3018-4.31 0-2.381 1.926-4.311 4.3019-4.311 2.3759 0 4.3019 1.93 4.3019 4.311zM37.9327 250c2.3759 0 4.3019-1.93 4.3019-4.31 0-2.381-1.926-4.311-4.3019-4.311-2.3759 0-4.3019 1.93-4.3019 4.311 0 2.38 1.926 4.31 4.3019 4.31zM76.6497 245.69c0 2.38-1.926 4.31-4.3019 4.31-2.3759 0-4.3019-1.93-4.3019-4.31 0-2.381 1.926-4.311 4.3019-4.311 2.3759 0 4.3019 1.93 4.3019 4.311zM106.763 250c2.376 0 4.302-1.93 4.302-4.31 0-2.381-1.926-4.311-4.302-4.311-2.376 0-4.302 1.93-4.302 4.311 0 2.38 1.926 4.31 4.302 4.31zM145.48 245.69c0 2.38-1.926 4.31-4.302 4.31-2.376 0-4.302-1.93-4.302-4.31 0-2.381 1.926-4.311 4.302-4.311 2.376 0 4.302 1.93 4.302 4.311zM175.593 250c2.376 0 4.302-1.93 4.302-4.31 0-2.381-1.926-4.311-4.302-4.311-2.376 0-4.302 1.93-4.302 4.311 0 2.38 1.926 4.31 4.302 4.31zM214.31 245.69c0 2.38-1.926 4.31-4.302 4.31-2.376 0-4.302-1.93-4.302-4.31 0-2.381 1.926-4.311 4.302-4.311 2.376 0 4.302 1.93 4.302 4.311zM244.423 250c2.376 0 4.302-1.93 4.302-4.31 0-2.381-1.926-4.311-4.302-4.311-2.376 0-4.302 1.93-4.302 4.311 0 2.38 1.926 4.31 4.302 4.31zM283.14 245.69c0 2.38-1.926 4.31-4.302 4.31-2.376 0-4.302-1.93-4.302-4.31 0-2.381 1.926-4.311 4.302-4.311 2.376 0 4.302 1.93 4.302 4.311zM313.253 250c2.376 0 4.302-1.93 4.302-4.31 0-2.381-1.926-4.311-4.302-4.311-2.375 0-4.301 1.93-4.301 4.311 0 2.38 1.926 4.31 4.301 4.31zM351.97 245.69c0 2.38-1.926 4.31-4.301 4.31-2.376 0-4.302-1.93-4.302-4.31 0-2.381 1.926-4.311 4.302-4.311 2.375 0 4.301 1.93 4.301 4.311zM382.084 250c2.376 0 4.302-1.93 4.302-4.31 0-2.381-1.926-4.311-4.302-4.311-2.376 0-4.302 1.93-4.302 4.311 0 2.38 1.926 4.31 4.302 4.31zM420.801 245.69c0 2.38-1.926 4.31-4.302 4.31-2.376 0-4.302-1.93-4.302-4.31 0-2.381 1.926-4.311 4.302-4.311 2.376 0 4.302 1.93 4.302 4.311zM450.914 250c2.376 0 4.302-1.93 4.302-4.31 0-2.381-1.926-4.311-4.302-4.311-2.376 0-4.302 1.93-4.302 4.311 0 2.38 1.926 4.31 4.302 4.31z"/></g></svg>