<svg width="36" height="36" fill="none" xmlns="http://www.w3.org/2000/svg"><rect width="36" height="36" rx="6" fill="url(#paint0_linear)"/><path d="M18 6.5226c3.7381 0 4.1809.0142 5.6571.0815 1.365.0624 2.1063.2904 2.5997.4821.6534.254 1.1198.5574 1.6097 1.0473.49.4899.7933.9563 1.0473 1.6097.1917.4934.4197 1.2347.4821 2.5996.0673 1.4763.0815 1.9191.0815 5.6572 0 3.7382-.0142 4.181-.0815 5.6572-.0624 1.365-.2904 2.1062-.4821 2.5996-.254.6534-.5574 1.1199-1.0473 1.6098-.4899.4899-.9563.7933-1.6097 1.0472-.4934.1917-1.2347.4199-2.5997.4821-1.476.0674-1.9188.0816-5.6571.0816-3.7384 0-4.1812-.0142-5.6572-.0816-1.365-.0624-2.1062-.2904-2.5996-.4821-.6534-.2539-1.12-.5573-1.6098-1.0472-.4899-.49-.7933-.9564-1.0472-1.6098-.1917-.4933-.4199-1.2346-.482-2.5996-.0675-1.4762-.0817-1.919-.0817-5.6572 0-3.7381.0142-4.1809.0816-5.6571.0624-1.365.2904-2.1063.4821-2.5997.2539-.6534.5573-1.1198 1.0472-1.6097.49-.49.9564-.7933 1.6098-1.0473.4933-.1917 1.2346-.4197 2.5996-.482 1.4762-.0674 1.919-.0816 5.6572-.0816zM18 4c-3.8022 0-4.279.016-5.7722.0842-1.4902.068-2.508.3047-3.3984.6508-.9207.3578-1.7014.8365-2.4797 1.6148-.7783.7783-1.257 1.559-1.6147 2.4796-.3462.8906-.5827 1.9083-.6508 3.3984C4.0161 13.721 4 14.1978 4 18s.016 4.279.0842 5.7722c.068 1.4902.3046 2.5079.6508 3.3983.3577.9207.8364 1.7015 1.6147 2.4798s1.559 1.2569 2.4797 1.6147c.8906.3462 1.9082.5827 3.3983.6508C13.721 31.9839 14.1978 32 18 32c3.8022 0 4.279-.0161 5.7722-.0842 1.4901-.0681 2.5078-.3046 3.3982-.6508.9208-.3577 1.7015-.8364 2.4798-1.6147s1.257-1.559 1.6148-2.4798c.3461-.8905.5827-1.9081.6508-3.3982C31.9839 22.279 32 21.8022 32 18c0-3.8022-.0161-4.279-.0842-5.7722-.0681-1.4901-.3047-2.5078-.6508-3.3982-.3578-.9208-.8365-1.7015-1.6148-2.4798s-1.559-1.2571-2.4797-1.6148c-.8905-.346-1.9082-.5827-3.3983-.6508C22.279 4.0161 21.8022 4 18 4zm0 6.8108c-3.9705 0-7.1892 3.2189-7.1892 7.1892 0 3.9705 3.2187 7.1892 7.1892 7.1892 3.9704 0 7.1892-3.2187 7.1892-7.1892 0-3.9704-3.2188-7.1892-7.1892-7.1892zm0 11.8559c-2.5773 0-4.6667-2.0894-4.6667-4.6667 0-2.5773 2.0894-4.6667 4.6667-4.6667 2.5773 0 4.6667 2.0894 4.6667 4.6667 0 2.5773-2.0894 4.6667-4.6667 4.6667zm9.1532-12.14c0 .928-.7521 1.68-1.68 1.68s-1.68-.752-1.68-1.68c0-.9278.7521-1.68 1.68-1.68s1.68.7522 1.68 1.68z" fill="#fff"/><defs><linearGradient id="paint0_linear" x1="3.5" y1="3.5" x2="18" y2="36" gradientUnits="userSpaceOnUse"><stop stop-color="#4D62D4"/><stop offset=".2813" stop-color="#8A42D2"/><stop offset=".5469" stop-color="#DF4134"/><stop offset=".776" stop-color="#E78437"/><stop offset="1" stop-color="#FBDC80"/></linearGradient></defs></svg>