<svg width="36" height="36" fill="none" xmlns="http://www.w3.org/2000/svg"><rect width="36" height="36" rx="6" fill="#fff"/><path d="M15.1125 14.3112l7.5688 3.9777L15.1125 22.3v-7.9888z" fill="#fff"/><path opacity=".12" d="M15.1125 22.3l6.6391-4.5.9297.4889L15.1125 22.3z" fill="#3A3A3A"/><path d="M31.7048 23.6889s-.2733 1.9555-1.1152 2.8222c-1.0605 1.1333-2.2522 1.1333-2.8098 1.2C23.8767 28 18.0055 28 18.0055 28h-.011s-5.8711 0-9.7961-.2889c-.5467-.0667-1.7384-.0667-2.8099-1.2-.831-.8667-1.1042-2.8222-1.1042-2.8222S4 21.3778 4 19.0778v-2.1556c0-2.3.2843-4.6.2843-4.6S4.5576 10.3667 5.3994 9.5c1.0606-1.1333 2.46-1.1 3.0832-1.2111C10.724 8.0667 17.9945 8 17.9945 8s5.8821.0111 9.7962.3c.5467.0667 1.7384.0667 2.8098 1.2.8419.8667 1.1152 2.8222 1.1152 2.8222s.2843 2.3.2843 4.6v2.1556c-.0109 2.3-.2952 4.6111-.2952 4.6111zm-16.5966-9.3778V22.3l7.5657-4.0111-7.5658-3.9778h.0001z" fill="url(#paint0_linear)"/><defs><linearGradient id="paint0_linear" x1="17.9944" y1="28" x2="17.9944" y2="7.994" gradientUnits="userSpaceOnUse"><stop stop-color="#E52D27"/><stop offset="1" stop-color="#BF171D"/></linearGradient></defs></svg>