<svg width="36" height="36" fill="none" xmlns="http://www.w3.org/2000/svg"><rect width="36" height="36" rx="6" fill="#fff"/><g clip-path="url(#clip0)"><path d="M5 18.5002c0 5.528 3.3242 10.2771 8.0809 12.3651-.038-.9427-.0067-2.0744.235-3.1001.2596-1.0959 1.7371-7.3562 1.7371-7.3562s-.4313-.862-.4313-2.136c0-2.0006 1.1595-3.4948 2.6036-3.4948 1.228 0 1.8212.9223 1.8212 2.0268 0 1.2344-.7873 3.0809-1.1922 4.791-.3382 1.4321.7181 2.6002 2.1308 2.6002 2.5578 0 4.2806-3.2853 4.2806-7.1777 0-2.9588-1.9929-5.1735-5.6175-5.1735-4.0952 0-6.6463 3.054-6.6463 6.4653 0 1.1761.3467 2.0056.8899 2.6479.2498.295.2845.4136.1941.7524-.0648.2484-.2135.8464-.2751 1.0833-.0899.342-.3669.4642-.6759.338-1.8862-.7701-2.7647-2.8357-2.7647-5.1577 0-3.8349 3.2343-8.4333 9.6485-8.4333 5.1543 0 8.5467 3.7297 8.5467 7.7334 0 5.2959-2.9443 9.2524-7.2844 9.2524-1.4574 0-2.8284-.7879-3.2981-1.6828 0 0-.7837 3.1105-.9497 3.7112-.2863 1.0408-.8465 2.0812-1.3588 2.892a13.4863 13.4863 0 003.8261.5536c7.455 0 13.4996-6.0443 13.4996-13.5005C32.0001 11.0443 25.9555 5 18.5005 5 11.0448 5 5 11.0443 5 18.5002z" fill="url(#paint0_linear)"/></g><defs><linearGradient id="paint0_linear" x1="8.24" y1="5" x2="23.9" y2="32" gradientUnits="userSpaceOnUse"><stop stop-color="#D22A2D"/><stop offset="1" stop-color="#D22C2E"/></linearGradient><clipPath id="clip0"><path fill="#fff" transform="translate(5 5)" d="M0 0h27v27H0z"/></clipPath></defs></svg>