<svg width="48" height="32" fill="none" xmlns="http://www.w3.org/2000/svg"><path d="M23.3125 4.4375c-1.7778-1.1806-3.7292-1.7708-5.8542-1.7708-1.4305 0-2.8021.2812-4.1145.8437-1.3126.5625-2.441 1.316-3.3855 2.2604-.9444.9445-1.6979 2.0695-2.2604 3.375-.5625 1.3056-.8437 2.6736-.8437 4.1042 0 1.4444.2812 2.8194.8437 4.125s1.316 2.4306 2.2604 3.375c.9445.9444 2.0695 1.6979 3.375 2.2604 1.3056.5625 2.6806.8438 4.125.8438 2.125 0 4.0764-.5903 5.8542-1.7709-1.8194-1.4861-3.0556-3.3298-3.7083-5.5312-.6528-2.2014-.6493-4.3993.0104-6.5938.6597-2.1944 1.8923-4.0347 3.6979-5.5208zm.6875.5c-1.75 1.375-2.9444 3.1076-3.5833 5.1979-.6389 2.0903-.6424 4.1771-.0105 6.2604.632 2.0834 1.8299 3.8125 3.5938 5.1875 1.7639-1.375 2.9618-3.1041 3.5938-5.1875.6319-2.0833.6284-4.1701-.0105-6.2604C26.9444 8.0451 25.75 6.3125 24 4.9375zm.6875-.5c1.8056 1.4861 3.0382 3.3299 3.6979 5.5313.6597 2.2013.6632 4.4027.0104 6.6041-.6527 2.2014-1.8889 4.0382-3.7083 5.5104 1.7778 1.1806 3.7292 1.7709 5.8542 1.7709 1.4444 0 2.8194-.2813 4.125-.8438 1.3055-.5625 2.4305-1.316 3.375-2.2604.9444-.9444 1.6979-2.0694 2.2604-3.375.5625-1.3056.8437-2.6806.8437-4.125 0-1.4306-.2812-2.7986-.8437-4.1042-.5625-1.3055-1.316-2.4305-2.2604-3.375-.9445-.9444-2.0729-1.6979-3.3855-2.2604-1.3124-.5625-2.684-.8437-4.1145-.8437-2.125 0-4.0764.5902-5.8542 1.7708zM40.125 19.4792h.1458v-.0625h-.3541v.0625h.1458v.3541h.0625v-.3541zm.6042.3541h.0833v-.4166h-.1042l-.125.2708-.125-.2708h-.1041v.4166h.0625v-.3125l.125.2709h.0833l.1042-.2709v.3125zM40.5625 29v.0417h-.1042v-.0625h.1042V29zm0 .1875h.0625l-.0833-.1042h.0416l.0209-.0208c.0139-.0139.0208-.0347.0208-.0625s-.0069-.0486-.0208-.0625l-.0209-.0208h-.1875v.2708h.0625v-.1042h.0209l.0833.1042zm-26.2917-1.4167c0-.2639.0764-.4791.2292-.6458.1528-.1667.3611-.25.625-.25.25 0 .4514.0868.6042.2604.1527.1736.2291.3854.2291.6354 0 .2639-.0764.4792-.2291.6459-.1528.1666-.3542.25-.6042.25-.2639 0-.4722-.0834-.625-.25-.1528-.1667-.2292-.382-.2292-.6459zm9.8542-.9166c.4167 0 .6597.2222.7292.6666h-1.4584c.0695-.4444.3125-.6666.7292-.6666zm7.4167.9166c0-.2639.0764-.4791.2291-.6458.1528-.1667.3542-.25.6042-.25.25 0 .4549.0868.6146.2604.1597.1736.2396.3854.2396.6354 0 .2639-.0764.4792-.2292.6459-.1528.1666-.3611.25-.625.25-.25 0-.4514-.0834-.6042-.25-.1527-.1667-.2291-.382-.2291-.6459zm5.6666 0c0-.25.0799-.4618.2396-.6354.1597-.1736.3646-.2604.6146-.2604.25 0 .4549.0868.6146.2604.1597.1736.2396.3854.2396.6354 0 .2639-.0799.4792-.2396.6459-.1597.1666-.3646.25-.6146.25-.25 0-.4549-.0868-.6146-.2605-.1597-.1736-.2396-.3854-.2396-.6354zm3.2917 1.5a.1843.1843 0 01-.0833-.0208c-.0139 0-.0348-.0139-.0625-.0417-.0278-.0277-.0417-.0486-.0417-.0625a.1843.1843 0 01-.0208-.0833c0-.0417.0069-.0694.0208-.0833 0-.0278.0139-.0556.0417-.0834l.0208-.0208c.0278 0 .0417-.0069.0417-.0208a.1844.1844 0 01.0833-.0209c.0417 0 .0694.007.0833.0209l.0834.0416.0416.0834V29c.0139.0278.0209.0486.0209.0625l-.0209.0208v.0625l-.0208.0209-.0208.0416c-.0278.0278-.0556.0417-.0834.0417-.0139.0139-.0416.0208-.0833.0208zm-28.0208-.0833h.625v-1.7708c0-.3334-.1007-.6007-.3021-.8021-.2014-.2014-.4757-.309-.8229-.3229-.4445 0-.7709.1666-.9792.5-.1944-.3334-.5069-.5-.9375-.5-.3333 0-.6042.1389-.8125.4166v-.3333h-.625v2.8125h.625V27.625c0-.5.2292-.75.6875-.75.4167 0 .625.25.625.75v1.5625h.6042V27.625c0-.5.2291-.75.6875-.75.4166 0 .625.25.625.75v1.5625zm3.4583 0h.6042V26.375h-.6042v.3333c-.2361-.2777-.5347-.4166-.8958-.4166-.4028 0-.7361.1389-1 .4166-.2639.2778-.3959.632-.3959 1.0625 0 .4306.132.7848.3959 1.0625.2639.2778.5972.4167 1 .4167.3889 0 .6875-.1389.8958-.4167v.3542zm3.7083-.8542c0-.4722-.3264-.75-.9791-.8333l-.2917-.0417c-.3194-.0555-.4792-.1527-.4792-.2916 0-.2084.1736-.3125.5209-.3125.3194 0 .618.0764.8958.2291l.25-.5c-.3056-.1944-.6875-.2916-1.1458-.2916-.3611 0-.6459.0833-.8542.25-.2083.1666-.3125.3889-.3125.6666 0 .4584.3264.7292.9792.8125l.2708.0417c.3333.0556.5.1528.5.2917 0 .2361-.2153.3541-.6458.3541-.3473 0-.6598-.0972-.9375-.2916l-.2709.4791c.3473.2361.75.3542 1.2084.3542.4027 0 .7187-.0833.9479-.25.2291-.1667.3437-.3889.3437-.6667zm2.7084.7084l-.1667-.5209c-.1806.0973-.3611.1459-.5417.1459-.2639 0-.3958-.1528-.3958-.4584v-1.2708h1v-.5625h-1v-.8542h-.625v.8542h-.5833v.5625h.5833v1.2708c0 .6945.3264 1.0417.9792 1.0417.2916 0 .5416-.0694.75-.2083zm1.7916-2.75c-.4027 0-.7361.1389-1 .4166-.2639.2778-.3958.632-.3958 1.0625 0 .4445.1354.8021.4062 1.073.2709.2708.6146.4062 1.0313.4062.4583 0 .8403-.1319 1.1458-.3958l-.2916-.4584c-.25.2084-.5209.3125-.8125.3125-.4723 0-.757-.2291-.8542-.6875h2.1042v-.25c0-.4444-.125-.802-.375-1.0729-.25-.2708-.5695-.4062-.9584-.4062zm3.3125 0c-.3194 0-.5625.1389-.7291.4166v-.3333h-.625v2.8125h.625v-1.5833c0-.4861.2014-.7292.6041-.7292.1389 0 .2639.0278.375.0833l.1875-.5833c-.125-.0556-.2708-.0833-.4375-.0833zm.625 1.4791c0 .4306.1355.7848.4063 1.0625.2708.2778.6354.4167 1.0937.4167.4028 0 .7361-.1111 1-.3333l-.2916-.5c-.25.1805-.4931.2639-.7292.25-.25 0-.4549-.0834-.6146-.25-.1597-.1667-.2396-.382-.2396-.6459s.0799-.4791.2396-.6458c.1597-.1667.3646-.25.6146-.25.2639 0 .5069.0833.7292.25l.2916-.5c-.2777-.2222-.6111-.3333-1-.3333-.4583 0-.8229.1389-1.0937.4166-.2708.2778-.4063.632-.4063 1.0625zm5.1042 1.4167h.625V26.375h-.625v.3333c-.2083-.2777-.5-.4166-.875-.4166-.4028 0-.7396.1389-1.0104.4166-.2709.2778-.4063.632-.4063 1.0625 0 .4306.1354.7848.4063 1.0625.2708.2778.6076.4167 1.0104.4167.3889 0 .6806-.1389.875-.4167v.3542zm2.7708-2.8958c-.3194 0-.5625.1389-.7291.4166v-.3333h-.6042v2.8125h.6042v-1.5833c0-.4861.2014-.7292.6041-.7292.1389 0 .2639.0278.375.0833l.1875-.5833c-.1111-.0556-.2569-.0833-.4375-.0833zm2.9167 2.8958h.6042v-3.9583h-.6042v1.4791c-.2083-.2777-.5069-.4166-.8958-.4166s-.7188.1423-.9896.4271c-.2708.2847-.4063.6354-.4063 1.052 0 .4167.1355.7674.4063 1.0521.2708.2847.6007.4271.9896.4271.4027 0 .7014-.1389.8958-.4167v.3542zm1.625-.4167l-.0417.0209h-.0625a.3278.3278 0 00-.0833.0625c-.0417.0139-.0625.0416-.0625.0833-.0139.0278-.0208.0694-.0208.125 0 .0417.0069.0764.0208.1042 0 .0277.0208.0555.0625.0833a.3278.3278 0 00.0833.0625c.0278.0139.0625.0208.1042.0208.0556 0 .0972-.0069.125-.0208 0-.0139.0139-.0278.0417-.0417l.0416-.0208c.0139-.0139.0348-.0417.0625-.0833.0139-.0278.0209-.0625.0209-.1042 0-.0556-.007-.0972-.0209-.125-.0139-.0139-.0347-.0417-.0625-.0833 0-.0139-.0139-.0278-.0416-.0417l-.0417-.0208a.283.283 0 01-.0625-.0105.2875.2875 0 00-.0625-.0104zM48 2.6667v26.6666c0 .7223-.2639 1.3473-.7917 1.875-.5277.5278-1.1527.7917-1.875.7917H2.6667c-.7223 0-1.3473-.2639-1.875-.7917C.2639 30.6806 0 30.0556 0 29.3333V2.6667c0-.7223.2639-1.3473.7917-1.875C1.3194.2639 1.9444 0 2.6667 0h42.6666c.7223 0 1.3473.2639 1.875.7917.5278.5277.7917 1.1527.7917 1.875z" fill="#7E8183"/></svg>