<svg width="41" height="32" fill="none" xmlns="http://www.w3.org/2000/svg"><path d="M33.462 14.2357s.5409 2.6572.662 3.2143h-2.3775c.2349-.6357 1.1389-3.1071 1.1389-3.1071-.0142.0214.2349-.65.3773-1.0643l.1993.9571zM41 3.4286v25.1428C41 30.4643 39.4696 32 37.5833 32H3.4167C1.5304 32 0 30.4643 0 28.5714V3.4286C0 1.5357 1.5304 0 3.4167 0h34.1666C39.4696 0 41 1.5357 41 3.4286zM10.855 21.3714l4.4986-11.0857h-3.0251l-2.7974 7.5714-.3061-1.5357-.9965-5.1c-.1637-.7071-.6691-.9071-1.2955-.9357H2.3276l-.0498.2214c1.1246.2858 2.1283.7 3.0038 1.2215l2.5483 9.6428h3.0251zm6.7195.0143l1.7937-11.1h-2.8614l-1.7867 11.1h2.8544zm9.9581-3.6286c.0143-1.2642-.7545-2.2285-2.3987-3.0214-1.0037-.5071-1.6158-.85-1.6158-1.3714.0142-.4714.5196-.9572 1.6442-.9572.9325-.0214 1.6158.2 2.1283.4215l.2563.1214.3915-2.4c-.5624-.2214-1.4592-.4714-2.5625-.4714-2.8259 0-4.8118 1.5143-4.8261 3.6714-.0213 1.5929 1.4236 2.4786 2.5056 3.0143 1.1033.5428 1.4805.9 1.4805 1.3786-.0142.7428-.8968 1.0857-1.7154 1.0857-1.1389 0-1.7511-.1786-2.6835-.5929l-.3773-.1786-.3986 2.4929c.6691.3071 1.9076.5786 3.1889.5929 3.0038.0071 4.9613-1.4858 4.9826-3.7858zm10.0507 3.6286l-2.3062-11.1h-2.2137c-.6834 0-1.203.2-1.4948.9214l-4.2495 10.1786h3.0038s.4912-1.3714.5979-1.6643h3.673c.0854.3929.3416 1.6643.3416 1.6643h2.6479z" fill="#7E8183"/></svg>